<?xml version="1.0" encoding="utf-8"?>
<!-- Generator: Adobe Illustrator 25.2.1, SVG Export Plug-In . SVG Version: 6.00 Build 0)  -->
<svg version="1.1" id="Layer_1" xmlns="http://www.w3.org/2000/svg" xmlns:xlink="http://www.w3.org/1999/xlink" x="0px" y="0px"
	 viewBox="0 0 137.3 81.5" style="enable-background:new 0 0 137.3 81.5;" xml:space="preserve">
<style type="text/css">
	.st0{fill:#000902;}
	.st1{fill:#FFFFFF;}
	.st2{fill:#F15A22;}
	.st3{fill:#FFC60B;}
	.st4{fill:#B2D235;}
	.st5{fill:#00AEEF;}
	.st6{fill:#AB4A9C;}
	.st7{fill:#E81A4B;}
</style>
<g>
	<g>
		<g>
			<path class="st0" d="M20.5,71.1h-0.1c0,0,0.3,1.9,0.3,4.3v6.1c0.5,0,1.1,0,1.7,0c0.4,0,0.8,0,1.2,0l-2-6.1
				C20.8,73,20.5,71.1,20.5,71.1z"/>
			<path class="st0" d="M44.2,70.4c-0.6-2.2-12.7-39.6-12.7-39.6L31.4,19c1.6-1.6,2.1-3.8-0.1-3.8s-15.8,0-18,0
				c-2.2,0-1.7,2.7,0,3.8l-0.2,11.8c0,0-12.2,37.4-12.8,39.6s-0.2,3.7,0,4.4c1.3,3.7,3.6,5.3,6.5,5.9v-4.3L2.1,67
				c0,0,0.9-0.2,2.6-0.2C6.1,66.8,7,67,7,67l2.2,4.5l2.2-4.5c0,0,1-0.2,2.3-0.2c1.5,0,2.4,0.2,2.4,0.2l-4.8,9.4v4.8
				c1.6,0.1,2.9,0.2,5.6,0.3V67c0,0,1-0.2,3-0.2c2.1,0,2.9,0.2,2.9,0.2l1.9,6c0.7,2.2,1.1,4.8,1.1,4.8H26c0,0-0.2-2.4-0.2-4.8v-6
				c0,0,0.8-0.2,1.9-0.2c1.2,0,1.8,0.2,1.8,0.2v14.4c0.5,0,0.9,0,1.3-0.1c-0.1-1.7,0.4-3.1,1.1-3.8c0,0,1.6,0.6,4,0.6
				c1.1,0,1.8-0.3,1.8-0.8c0-0.6-0.9-0.9-2.1-1.2c-1.9-0.6-4.5-1.4-4.5-4.7c0-2.9,1.8-4.9,5.9-4.9c2.9,0,4.7,0.8,4.7,0.8
				c0,1.2-0.4,2.4-1,3.2c0,0-1.4-0.4-2.8-0.4c-1.4,0-2,0.3-2,0.8c0,0.8,1.6,0.9,3.2,1.5c1.7,0.6,3.5,1.7,3.5,4.5
				c0,0.4,0,0.8-0.1,1.2c0.8-0.8,1.4-1.9,1.9-3.3C44.4,74.2,44.8,72.7,44.2,70.4z"/>
			<path class="st1" d="M16.2,67c0,0-0.9-0.2-2.4-0.2c-1.4,0-2.3,0.2-2.3,0.2l-2.2,4.5L7,67c0,0-0.9-0.2-2.4-0.2
				C3,66.8,2.1,67,2.1,67l4.7,9.3v4.3c0.6,0.1,1.3,0.2,2,0.3c1,0.1,1.8,0.1,2.5,0.2v-4.8L16.2,67z"/>
			<path class="st1" d="M27.7,66.8c-1.1,0-1.9,0.2-1.9,0.2v6c0,2.4,0.2,4.8,0.2,4.8h-0.1c0,0-0.4-2.5-1.1-4.8l-1.9-6
				c0,0-0.9-0.2-2.9-0.2c-2.1,0-3,0.2-3,0.2v14.4c1,0,2.2,0,3.8,0v-6.1c0-2.4-0.3-4.3-0.3-4.3h0.1c0,0,0.3,1.9,1,4.3l2,6.1
				c2.7,0,4.6,0,6-0.1V67C29.5,67,28.9,66.8,27.7,66.8z"/>
			<path class="st1" d="M38.9,72.5c-1.6-0.6-3.2-0.7-3.2-1.5c0-0.5,0.7-0.8,2-0.8c1.4,0,2.8,0.4,2.8,0.4c0.7-0.8,1.1-2,1-3.2
				c0,0-1.8-0.8-4.7-0.8c-4.1,0-5.9,2-5.9,4.9c0,3.3,2.5,4.2,4.5,4.7c1.2,0.4,2.1,0.6,2.1,1.2c0,0.5-0.6,0.8-1.8,0.8
				c-2.4,0-4-0.6-4-0.6c-0.6,0.7-1.1,2.2-1.1,3.8c1.7-0.1,2.8-0.2,5-0.4c2.6-0.2,4.8-0.9,6.5-2.7c0.1-0.4,0.1-0.8,0.1-1.2
				C42.4,74.2,40.7,73.1,38.9,72.5z"/>
		</g>
		<path class="st2" d="M25,43c-3.2,0-5.8-2.6-5.8-5.8c0-3.2,2.6-5.8,5.8-5.8c3.2,0,5.8,2.6,5.8,5.8C30.8,40.4,28.2,43,25,43z
			 M25,32.5c-2.6,0-4.8,2.1-4.8,4.8S22.4,42,25,42s4.8-2.1,4.8-4.8S27.7,32.5,25,32.5z"/>
		<path class="st3" d="M18.7,29.4c-2.4,0-4.3-1.9-4.3-4.3c0-2.4,1.9-4.3,4.3-4.3s4.3,1.9,4.3,4.3C23,27.5,21.1,29.4,18.7,29.4z
			 M18.7,21.8c-1.8,0-3.3,1.5-3.3,3.3s1.5,3.3,3.3,3.3c1.8,0,3.3-1.5,3.3-3.3S20.6,21.8,18.7,21.8z"/>
		<path class="st4" d="M26.4,20c-2.1,0-3.7-1.7-3.7-3.7s1.7-3.7,3.7-3.7s3.7,1.7,3.7,3.7S28.5,20,26.4,20z M26.4,13.6
			c-1.5,0-2.7,1.2-2.7,2.7c0,1.5,1.2,2.7,2.7,2.7s2.7-1.2,2.7-2.7C29.1,14.8,27.9,13.6,26.4,13.6z"/>
		<path class="st5" d="M18.1,13.4c-1.7,0-3.1-1.4-3.1-3.1c0-1.7,1.4-3.1,3.1-3.1c1.7,0,3.1,1.4,3.1,3.1C21.2,12,19.8,13.4,18.1,13.4
			z M18.1,8.2C17,8.2,16,9.1,16,10.3c0,1.2,0.9,2.1,2.1,2.1c1.2,0,2.1-0.9,2.1-2.1C20.2,9.1,19.3,8.2,18.1,8.2z"/>
		<path class="st6" d="M27.1,4.8c-1.3,0-2.4-1.1-2.4-2.4S25.8,0,27.1,0c1.3,0,2.4,1.1,2.4,2.4S28.4,4.8,27.1,4.8z M27.1,0.8
			c-0.9,0-1.6,0.7-1.6,1.6S26.2,4,27.1,4c0.9,0,1.6-0.7,1.6-1.6S28,0.8,27.1,0.8z"/>
		<path class="st7" d="M17,60.6c-4.5,0-8.2-3.8-8.2-8.5s3.7-8.5,8.2-8.5c4.5,0,8.2,3.8,8.2,8.5S21.6,60.6,17,60.6z M17,44.7
			c-4,0-7.2,3.4-7.2,7.5s3.2,7.5,7.2,7.5c4,0,7.2-3.4,7.2-7.5S21,44.7,17,44.7z"/>
	</g>
	<g>
		<g>
			<path class="st0" d="M64.3,36.4c-0.6,1.7-1.2,2.7-2.7,2.7c-0.6,0-1-0.1-1-0.1c0-0.1-0.1-0.2-0.1-0.4c0-0.2,0.1-0.4,0.1-0.4
				c0,0,0.4,0.1,0.9,0.1c0.8,0,1.3-0.5,1.9-2.1l0.7-2c-0.1,0-0.2,0-0.4-0.1l-4.2-10.3c0,0,0.2-0.1,0.6-0.1c0.4,0,0.5,0.1,0.5,0.1
				l3,7.5c0.4,1.1,0.7,2,0.7,2h0.1c0,0,0.2-0.8,0.6-2l2.7-7.5c0,0,0.1-0.1,0.5-0.1c0.3,0,0.5,0.1,0.5,0.1L64.3,36.4z"/>
			<path class="st0" d="M74.6,23.4c2.6,0,4.2,1.5,4.2,5.5s-1.5,5.5-4.2,5.5c-2.6,0-4.2-1.5-4.2-5.5S72,23.4,74.6,23.4z M74.6,24.2
				c-1.9,0-3.1,1.1-3.1,4.6c0,3.5,1.2,4.6,3.1,4.6c1.9,0,3.1-1.1,3.1-4.6C77.7,25.3,76.5,24.2,74.6,24.2z"/>
			<path class="st0" d="M81.6,23.6c0,0,0.2-0.1,0.5-0.1c0.4,0,0.5,0.1,0.5,0.1v7.4c0,1.6,0.8,2.3,2.4,2.3c1.2,0,2.5-0.8,3.2-2.3
				v-7.5c0,0,0.2-0.1,0.5-0.1c0.3,0,0.5,0.1,0.5,0.1V34c0,0-0.2,0.1-0.5,0.1c-0.3,0-0.5-0.1-0.5-0.1v-1.5c-0.8,1.1-2,1.8-3.6,1.8
				c-1.9,0-3-1.2-3-3V23.6z"/>
			<path class="st0" d="M100.3,34c0,0-0.2,0.1-0.5,0.1c-0.4,0-0.5-0.1-0.5-0.1v-7.4c0-1.6-0.8-2.3-2.4-2.3c-1.3,0-2.5,0.8-3.2,2.3
				V34c0,0-0.2,0.1-0.5,0.1S92.7,34,92.7,34V23.6c0,0,0.2-0.1,0.5-0.1s0.5,0.1,0.5,0.1v1.5c0.8-1.1,2-1.8,3.6-1.8c1.9,0,3,1.2,3,3
				V34z"/>
			<path class="st0" d="M111.6,23.4c0.1,0.3,0.1,0.7,0,1l-1.9,0.1c0.5,0.6,0.8,1.4,0.8,2.4c0,2.1-1.3,3.4-3.7,3.4
				c-0.4,0-0.9-0.1-1.2-0.1c-0.3,0.4-0.7,1-0.7,1.7c0.1,2.2,6.6,0,6.6,4c0,1.8-1.6,3.3-4.9,3.3c-2.8,0-4-1.3-4-2.9
				c0-1.6,1.3-2.6,1.8-3c-0.3-0.3-0.5-0.6-0.5-1.2c0-0.9,0.5-1.7,0.9-2.2c-1.1-0.5-1.7-1.6-1.7-3.1c0-2.2,1.3-3.5,3.7-3.5
				c0.8,0,1.6,0.2,2.1,0.5L111.6,23.4z M105.2,33.6c-0.9,0.6-1.4,1.6-1.4,2.4c0,1.4,1,2.2,3,2.2c2.4,0,3.9-0.9,3.9-2.3
				C110.6,33.6,107.1,34.3,105.2,33.6z M106.9,24.2c-1.6,0-2.6,0.9-2.6,2.6c0,1.8,1.1,2.7,2.6,2.7c1.6,0,2.6-0.9,2.6-2.7
				C109.5,25,108.5,24.2,106.9,24.2z"/>
		</g>
		<g>
			<path class="st0" d="M67.1,53.5c0,0-0.2,0.1-0.5,0.1c-0.4,0-0.5-0.1-0.5-0.1v-7.4c0-1.6-0.8-2.3-2.4-2.3c-1.3,0-2.5,0.8-3.2,2.3
				v7.5c0,0-0.2,0.1-0.5,0.1c-0.3,0-0.5-0.1-0.5-0.1V43.1c0,0,0.2-0.1,0.5-0.1c0.3,0,0.5,0.1,0.5,0.1v1.5c0.8-1.1,2-1.8,3.6-1.8
				c1.9,0,3,1.2,3,3V53.5z"/>
			<path class="st0" d="M71,48.6c0.1,3,1.2,4.2,3.4,4.2c1.6,0,2.5-0.7,2.5-0.7c0.2,0.2,0.4,0.5,0.4,0.8c0,0-1.1,0.9-3.2,0.9
				c-2.7,0-4.2-1.9-4.2-5.5c0-3.8,1.7-5.4,4.2-5.4c2.4,0,3.7,1.5,3.7,3.8c0,1.2-0.2,2-0.2,2H71z M74.2,43.7c-1.8,0-3,1.2-3.1,4.1
				h5.7c0,0,0.1-0.5,0.1-1.3C76.8,45,76.1,43.7,74.2,43.7z"/>
			<path class="st0" d="M81.7,44.6c0.6-1.1,1.6-1.8,3.2-1.8c2.4,0,3.9,1.4,3.9,5.5c0,4.1-1.5,5.5-3.9,5.5c-1.6,0-2.6-0.7-3.2-1.8
				v1.5c0,0-0.1,0.1-0.5,0.1c-0.4,0-0.5-0.1-0.5-0.1V38.7c0,0,0.1-0.1,0.5-0.1c0.4,0,0.5,0.1,0.5,0.1V44.6z M84.6,43.7
				c-1.9,0-2.9,1.7-2.9,3.2v2.6c0,1.6,1,3.3,2.9,3.3c2.2,0,3.1-1.3,3.1-4.6S86.8,43.7,84.6,43.7z"/>
			<path class="st0" d="M95.6,42.9c1,0,1.6,0.4,1.7,0.5c0,0.4-0.2,0.7-0.5,0.8c-0.5-0.2-0.8-0.4-1.4-0.4c-1,0-2,1-2.7,2.4v7.3
				c0,0-0.1,0.1-0.5,0.1c-0.4,0-0.5-0.1-0.5-0.1V43.1c0,0,0.1-0.1,0.5-0.1c0.4,0,0.5,0.1,0.5,0.1V45C93.6,43.2,94.8,42.9,95.6,42.9z
				"/>
			<path class="st0" d="M102.8,42.9c2.9,0,3.5,1.5,3.5,4.2v6.5c0,0-0.1,0.1-0.4,0.1c-0.3,0-0.4-0.1-0.4-0.1l-0.2-1.7
				c-0.6,1.3-1.9,2-3.5,2c-1.8,0-3.1-1.1-3.1-3.1c0-2,1.2-3.1,3.7-3.1c1.3,0,2.4,0.1,2.9,0.2v-1.4c0-2-0.9-2.7-2.6-2.7
				c-1.5,0-2.9,0.5-2.9,0.5c-0.1,0-0.2-0.1-0.3-0.3c-0.1-0.2-0.1-0.4-0.1-0.5C99.5,43.5,101,42.9,102.8,42.9z M102.5,48.4
				c-1.9,0-2.8,0.7-2.8,2.3c0,1.6,0.9,2.2,2.3,2.2c1.9,0,3.2-1.4,3.2-3.5v-0.9C104.8,48.5,103.7,48.4,102.5,48.4z"/>
			<path class="st0" d="M112.6,42.9c1.6,0,2.6,0.5,2.6,0.5c0,0.3-0.1,0.6-0.3,0.8c0,0-1-0.4-2.2-0.4c-1.7,0-2.6,0.7-2.6,2
				c0,1.2,1.2,1.6,2.5,2c1.5,0.4,3.2,0.9,3.2,3c0,1.8-1.2,3-3.6,3c-1.9,0-3.1-0.6-3.1-0.6c0-0.3,0.1-0.6,0.3-0.8
				c0,0,1.3,0.5,2.7,0.5c1.5,0,2.6-0.6,2.6-2c0-1.5-1.3-1.8-2.7-2.2c-1.4-0.4-2.9-1-2.9-2.8C109.1,44.1,110.2,42.9,112.6,42.9z"/>
			<path class="st0" d="M124.7,43.1c0,0,0.2-0.1,0.6-0.1c0.4,0,0.5,0.1,0.5,0.1l-3.4,4.9l3.8,5.5c0,0-0.2,0.1-0.6,0.1
				c-0.4,0-0.6-0.1-0.6-0.1l-3.5-5h-2.1v5c0,0-0.2,0.1-0.5,0.1s-0.5-0.1-0.5-0.1V38.7c0,0,0.2-0.1,0.5-0.1s0.5,0.1,0.5,0.1v9h2.1
				L124.7,43.1z"/>
			<path class="st0" d="M131.8,42.9c2.9,0,3.5,1.5,3.5,4.2v6.5c0,0-0.1,0.1-0.4,0.1c-0.3,0-0.4-0.1-0.4-0.1l-0.2-1.7
				c-0.6,1.3-1.9,2-3.5,2c-1.8,0-3.1-1.1-3.1-3.1c0-2,1.2-3.1,3.7-3.1c1.3,0,2.4,0.1,2.9,0.2v-1.4c0-2-0.9-2.7-2.6-2.7
				c-1.5,0-2.9,0.5-2.9,0.5c-0.1,0-0.2-0.1-0.3-0.3c-0.1-0.2-0.1-0.4-0.1-0.5C128.5,43.5,130,42.9,131.8,42.9z M131.6,48.4
				c-1.9,0-2.8,0.7-2.8,2.3c0,1.6,0.9,2.2,2.3,2.2c1.9,0,3.2-1.4,3.2-3.5v-0.9C133.8,48.5,132.7,48.4,131.6,48.4z"/>
		</g>
		<g>
			<path class="st0" d="M63.1,62.4c1.6,0,2.6,0.5,2.6,0.5c0,0.3-0.1,0.6-0.3,0.8c0,0-1-0.4-2.2-0.4c-1.7,0-2.6,0.7-2.6,2
				c0,1.2,1.2,1.6,2.5,2c1.5,0.4,3.2,0.9,3.2,3c0,1.8-1.2,3-3.6,3c-1.9,0-3.1-0.6-3.1-0.6c0-0.3,0.1-0.6,0.3-0.8
				c0,0,1.3,0.5,2.7,0.5c1.5,0,2.6-0.6,2.6-2c0-1.5-1.3-1.8-2.7-2.2c-1.4-0.4-2.9-1-2.9-2.8C59.5,63.6,60.7,62.4,63.1,62.4z"/>
			<path class="st0" d="M69.5,67.8c0,3.1,1.1,4.5,3.4,4.5c1.2,0,2-0.4,2-0.4c0.2,0.1,0.3,0.5,0.4,0.8c0,0-0.9,0.6-2.6,0.6
				c-2.7,0-4.2-1.9-4.2-5.5c0-3.6,1.5-5.5,4.2-5.5c1.6,0,2.4,0.5,2.4,0.5c0,0.3-0.1,0.6-0.3,0.8c0,0-0.7-0.4-1.9-0.4
				C70.5,63.3,69.5,64.8,69.5,67.8z"/>
			<path class="st0" d="M79,60.1c0,0-0.2,0.1-0.6,0.1s-0.6-0.1-0.6-0.1V59c0,0,0.2-0.1,0.6-0.1S79,59,79,59V60.1z M78.9,73
				c0,0-0.1,0.1-0.5,0.1c-0.4,0-0.5-0.1-0.5-0.1V62.6c0,0,0.1-0.1,0.5-0.1c0.4,0,0.5,0.1,0.5,0.1V73z"/>
			<path class="st0" d="M82.9,68.1c0.1,3,1.2,4.2,3.4,4.2c1.6,0,2.5-0.7,2.5-0.7c0.2,0.2,0.4,0.5,0.4,0.8c0,0-1.1,0.9-3.2,0.9
				c-2.7,0-4.2-1.9-4.2-5.5c0-3.8,1.7-5.4,4.2-5.4c2.4,0,3.7,1.5,3.7,3.8c0,1.2-0.2,2-0.2,2H82.9z M86,63.2c-1.8,0-3,1.2-3.1,4.1
				h5.7c0,0,0.1-0.5,0.1-1.3C88.7,64.5,87.9,63.2,86,63.2z"/>
			<path class="st0" d="M100.1,73c0,0-0.2,0.1-0.5,0.1c-0.4,0-0.5-0.1-0.5-0.1v-7.4c0-1.6-0.8-2.3-2.4-2.3c-1.3,0-2.5,0.8-3.2,2.3
				V73c0,0-0.2,0.1-0.5,0.1S92.5,73,92.5,73V62.6c0,0,0.2-0.1,0.5-0.1s0.5,0.1,0.5,0.1v1.5c0.8-1.1,2-1.8,3.6-1.8c1.9,0,3,1.2,3,3
				V73z"/>
			<path class="st0" d="M105,69.6c0,2,0.5,2.8,2.2,2.8c0.6,0,1.1-0.1,1.1-0.1s0.1,0.2,0.1,0.4c0,0.3-0.1,0.4-0.1,0.4
				c-0.1,0-0.6,0.2-1.4,0.2c-2.3,0-3-1.3-3-3.7v-6.2h-1.6c0,0-0.1-0.1-0.1-0.4c0-0.3,0.1-0.4,0.1-0.4h1.6v-2c0.3-0.2,0.6-0.3,1-0.2
				v2.2h3.1c0,0,0.1,0.1,0.1,0.4c0,0.3-0.1,0.4-0.1,0.4H105V69.6z"/>
			<path class="st0" d="M111.8,60.1c0,0-0.2,0.1-0.6,0.1s-0.6-0.1-0.6-0.1V59c0,0,0.2-0.1,0.6-0.1s0.6,0.1,0.6,0.1V60.1z M111.7,73
				c0,0-0.1,0.1-0.5,0.1c-0.4,0-0.5-0.1-0.5-0.1V62.6c0,0,0.1-0.1,0.5-0.1c0.4,0,0.5,0.1,0.5,0.1V73z"/>
			<path class="st0" d="M118.2,62.4c1.6,0,2.6,0.5,2.6,0.5c0,0.3-0.1,0.6-0.3,0.8c0,0-1-0.4-2.2-0.4c-1.7,0-2.6,0.7-2.6,2
				c0,1.2,1.2,1.6,2.5,2c1.5,0.4,3.2,0.9,3.2,3c0,1.8-1.2,3-3.6,3c-1.9,0-3.1-0.6-3.1-0.6c0-0.3,0.1-0.6,0.3-0.8
				c0,0,1.3,0.5,2.7,0.5c1.5,0,2.6-0.6,2.6-2c0-1.5-1.3-1.8-2.7-2.2c-1.4-0.4-2.9-1-2.9-2.8C114.6,63.6,115.8,62.4,118.2,62.4z"/>
			<path class="st0" d="M125.6,69.6c0,2,0.5,2.8,2.2,2.8c0.6,0,1.1-0.1,1.1-0.1s0.1,0.2,0.1,0.4c0,0.3-0.1,0.4-0.1,0.4
				c-0.1,0-0.6,0.2-1.4,0.2c-2.3,0-3-1.3-3-3.7v-6.2H123c0,0-0.1-0.1-0.1-0.4c0-0.3,0.1-0.4,0.1-0.4h1.6v-2c0.3-0.2,0.6-0.3,1-0.2
				v2.2h3.1c0,0,0.1,0.1,0.1,0.4c0,0.3-0.1,0.4-0.1,0.4h-3.1V69.6z"/>
			<path class="st0" d="M134.2,62.4c1.6,0,2.6,0.5,2.6,0.5c0,0.3-0.1,0.6-0.3,0.8c0,0-1-0.4-2.2-0.4c-1.7,0-2.6,0.7-2.6,2
				c0,1.2,1.2,1.6,2.5,2c1.5,0.4,3.2,0.9,3.2,3c0,1.8-1.2,3-3.6,3c-1.9,0-3.1-0.6-3.1-0.6c0-0.3,0.1-0.6,0.3-0.8
				c0,0,1.3,0.5,2.7,0.5c1.5,0,2.6-0.6,2.6-2c0-1.5-1.3-1.8-2.7-2.2c-1.4-0.4-2.9-1-2.9-2.8C130.7,63.6,131.8,62.4,134.2,62.4z"/>
		</g>
	</g>
	<g>
		<path class="st0" d="M52.4,81.4c0,0-0.1,0.1-0.4,0.1c-0.3,0-0.4-0.1-0.4-0.1V15.2c0,0,0.1-0.1,0.4-0.1c0.3,0,0.4,0.1,0.4,0.1V81.4
			z"/>
	</g>
</g>
</svg>
